# AST/ASF file generated using VICON BodyLanguage
# -----------------------------------------------
:version 1.10
:name VICON
:units
  mass 1.0
  length 0.45
  angle deg
:documentation
   .ast/.asf automatically generated from VICON data using
   VICON BodyBuilder and BodyLanguage model FoxedUp or BRILLIANT.MOD
:root
   order TX TY TZ RX RY RZ
   axis XYZ
   position 0 0 0  
   orientation 0 -0 0 
:bonedata
  begin
     id 1 
     name lhipjoint
     direction 0.432694 -0.693742 0.575759 
     length 2.19277 
     axis 0 -0 0  XYZ
  end
  begin
     id 2 
     name lfemur
     direction 0.34202 -0.939693 0  
     length 6.69022  
     axis 0 -0 20  XYZ
    dof rx ry rz
    limits (-160.0 20.0)
           (-70.0 70.0)
           (-60.0 70.0)
  end
  begin
     id 3 
     name ltibia
     direction 0.34202 -0.939693 0   
     length 6.50337   
     axis 0 -0 20   XYZ
    dof rx
    limits (-10.0 170.0)
  end
  begin
     id 4 
     name lfoot
     direction 0.158999 -0.435969 0.885805   
     length 2.70564   
     axis -90 -1.13533e-015 20   XYZ
    dof rx rz
    limits (-45.0 90.0)
           (-70.0 20.0)
  end
  begin
     id 5 
     name ltoes
     direction -0.00592919 0.00964381 0.999936   
     length 1.29929   
     axis -90 -1.13533e-015 20   XYZ
    dof rx
    limits (-90.0 20.0)
  end
  begin
     id 6 
     name rhipjoint
     direction -0.414359 -0.700339 0.581234   
     length 2.17212  
     axis 0 -0 0  XYZ 
  end
  begin
     id 7 
     name rfemur
     direction -0.34202 -0.939693 0   
     length 7.17659   
     axis 0 -0 -20   XYZ
    dof rx ry rz
    limits (-160.0 20.0)
           (-70.0 70.0)
           (-70.0 60.0)
  end
  begin
     id 8 
     name rtibia
     direction -0.34202 -0.939693 0   
     length 6.36669   
     axis 0 -0 -20   XYZ
    dof rx
    limits (-10.0 170.0)
 end
 begin
     id 9 
     name rfoot
     direction -0.137064 -0.37658 0.916188   
     length 2.22351  
     axis -90 1.13533e-015 -20   XYZ
    dof rx rz
    limits (-45.0 90.0)
           (-20.0 70.0)
  end
  begin
     id 10 
     name rtoes
     direction -0.000784077 -0.00289101 0.999996   
     length 1.09522   
     axis -90 1.13533e-015 -20   XYZ
    dof rx
    limits (-90.0 20.0)
  end
  begin
     id 11 
     name lowerback
     direction -0.0176242 0.984912 -0.172157   
     length 1.65301   
     axis 0 -0 0   XYZ
    dof rx ry rz
    limits (-20.0 45.0)
           (-30.0 30.0)
           (-30.0 30.0)
  end
  begin
     id 12 
     name upperback
     direction -0.00218128 0.998776 -0.0494072   
     length 1.67776   
     axis 0 -0 0   XYZ
    dof rx ry rz
    limits (-20.0 45.0)
           (-30.0 30.0)
           (-30.0 30.0)
  end
  begin
     id 13 
     name thorax
     direction 0.00544186 0.999658 0.0255711   
     length 1.72293   
     axis 0 -0 0   XYZ
    dof rx ry rz
    limits (-20.0 45.0)
           (-30.0 30.0)
           (-30.0 30.0)
  end
  begin
     id 14 
     name lowerneck
     direction -0.105325 0.983841 0.144785   
     length 2.14226   
     axis 0 -0 0   XYZ
    dof rx ry rz
    limits (-20.0 45.0)
           (-30.0 30.0)
           (-30.0 30.0)
  end
  begin
     id 15 
     name upperneck
     direction 0.0547957 0.988053 -0.144041   
     length 2.17508   
     axis 0 -0 0   XYZ
    dof rx ry rz
    limits (-20.0 45.0)
           (-30.0 30.0)
           (-30.0 30.0)
  end
  begin
     id 16
     name head
     direction 0.0247488 0.997534 -0.0656813  
     length 2.20048  
     axis 0 -0 0   XYZ
    dof rx ry rz
    limits (-20.0 45.0)
           (-30.0 30.0)
           (-30.0 30.0)
  end
  begin
     id 17 
     name lclavicle
     direction 0.820559 0.567247 -0.0701026  
     length 4.09615  
     axis 0 -0 0   XYZ
    dof ry rz
    limits (-20.0 10.0)
           (0.0 20.0)
  end
  begin
     id 18 
     name lhumerus
     direction 0.999977 -0.0067566 -9.96392e-005   
     length 4.59333   
     axis -180 -30 -90   XYZ
    dof rx ry rz
    limits (-60.0 90.0)
           (-90.0 90.0)
           (-90.0 90.0)
  end
  begin
     id 19
     name lradius
     direction 1 -4.48982e-011 -2.53425e-027   
     length 2.81151   
     axis -180 -30 -90   XYZ
    dof rx
    limits (-10.0 170.0)
  end
  begin
     id 20
     name lwrist
     direction 1 -4.48939e-011 -7.39254e-028   
     length 1.40576   
     axis 2.56395e-016 90 90   XYZ
    dof ry
    limits (-180.0 0.0)
 end
  begin
     id 21 
     name lhand
     direction 1 -4.48939e-011 -1.47851e-027   
     length 0.895651   
     axis 9.43423e-016 90 90   XYZ
    dof rx rz
    limits (-90.0 90.0)
           (-45.0 45.0)
  end
  begin
     id 22 
     name lfingers
     direction 1 -4.48978e-011 -2.95702e-027   
     length 0.722097   
     axis 1.88685e-015 90 90   XYZ
    dof rx
    limits (0.0 90.0)
  end
  begin
     id 23
     name lthumb
     direction 0.707107 -6.34931e-011 0.707107   
     length 1.03679   
     axis -90 45 -9.86935e-015   XYZ
    dof rx rz
    limits (-45.0 45.0)
           (-45.0 45.0)
  end
  begin
     id 24 
     name rclavicle
     direction -0.831414 0.553102 -0.0531864   
     length 4.24872  
     axis 0 -0 0   XYZ 
    dof ry rz
    limits (-10.0 20.0)
           (-20.0 0.0)
  end
  begin
     id 25 
     name rhumerus
     direction -0.999916 -0.000939607 0.0129331  
     length 4.74834   
     axis -180 30 90   XYZ
    dof rx ry rz
    limits (-90.0 60.0)
           (-90.0 90.0)
           (-90.0 90.0)
  end
  begin
     id 26 
     name rradius
     direction -1 -4.48956e-011 -1.31752e-027   
     length 2.79907   
     axis -180 30 90   XYZ
    dof rx
    limits (-10.0 170.0)
  end
  begin
     id 27 
     name rwrist
     direction -1 -4.4897e-011 -7.39254e-028   
     length 1.39954   
     axis 2.56395e-016 -90 -90   XYZ
    dof ry
    limits (-180.0 0.0)
  end
  begin
     id 28
     name rhand
     direction -0.999997 -0.00250697 0.000800838   
     length 0.953304   
     axis 9.43423e-016 -90 -90   XYZ
    dof rx rz
    limits (-90.0 90.0)
           (-45.0 45.0)
  end
  begin
     id 29
     name rfingers
     direction -1 -4.48954e-011 -2.95702e-027   
     length 0.763342   
     axis 1.88685e-015 -90 -90   XYZ
    dof rx
    limits (0.0 90.0)
  end
  begin
     id 30
     name rthumb
     direction -0.709701 -0.00217037 0.7045   
     length 1.10115   
     axis -90 -45 9.86935e-015   XYZ
    dof rx rz
    limits (-45.0 45.0)
           (-45.0 45.0)
  end
:hierarchy
  begin
    root lhipjoint rhipjoint lowerback
    lhipjoint lfemur
    lfemur ltibia
    ltibia lfoot
    lfoot ltoes
    rhipjoint rfemur
    rfemur rtibia
    rtibia rfoot
    rfoot rtoes
    lowerback upperback
    upperback thorax
    thorax lowerneck lclavicle rclavicle
    lowerneck upperneck
    upperneck head
    lclavicle lhumerus
    lhumerus lradius
    lradius lwrist
    lwrist lhand lthumb
    lhand lfingers
    rclavicle rhumerus
    rhumerus rradius
    rradius rwrist
    rwrist rhand rthumb
    rhand rfingers
  end

#!OML:ASF G:\ViconDB\ViconDB\414\test\team2\shane.ASF
:FULLY-SPECIFIED
:DEGREES
50
root 2.69707 15.6615 -37.1643 18.2613 3.67489 -7.25559
lowerback 16.3536 -1.21095 1.94611
upperback 8.81429 -1.26786 1.93489
thorax 0.212257 -0.612305 1.13012
lowerneck -14.728 -5.82108 -14.7668
upperneck 16.303 -4.97863 2.42528
head 7.95622 -3.03891 2.61636
rclavicle -3.18055e-015 -3.81667e-014
rhumerus -22.76 19.993 -72.8906
rradius 44.9941
rwrist 25.0105
rhand -31.5478 -16.4233
rfingers 7.12502
rthumb -4.81208 -46.3486
lclavicle -3.18055e-015 -3.81667e-014
lhumerus -1.05526 -22.9582 73.9841
lradius 26.2629
lwrist -18.4777
lhand -47.7003 11.5533
lfingers 7.12502
lthumb -20.3804 40.5039
rfemur -26.2717 -15.1753 22.6236
rtibia 47.2526
rfoot -33.4682 -7.97001
rtoes -16.7016
lfemur -8.82023 0.622764 1.4611
ltibia 35.7248
lfoot -28.3764 -15.9705
ltoes -29.4727
51
root 2.63229 15.7024 -37.0859 19.3252 4.31636 -6.76874
lowerback 16.5005 -1.10244 1.87969
upperback 8.99709 -1.13284 1.79974
thorax 0.328067 -0.54133 1.00569
lowerneck -14.6351 -6.15477 -15.0649
upperneck 15.9339 -5.3351 2.19886
head 7.85458 -3.23159 2.54269
rclavicle 9.14409e-015 2.46493e-014
rhumerus -19.9295 19.5713 -71.3955
rradius 44.5508
rwrist 24.0166
rhand -31.5969 -16.4546
rfingers 7.12502
rthumb -4.85946 -46.3789
lclavicle 9.14409e-015 2.46493e-014
lhumerus 0.540393 -23.408 72.4397
lradius 26.5844
lwrist -17.7088
lhand -47.7759 11.7086
lfingers 7.12502
lthumb -20.4531 40.6513
rfemur -26.4398 -16.1127 23.0715
rtibia 45.8693
rfoot -33.8659 -8.89163
rtoes -16.3118
lfemur -12.1329 1.81509 1.08286
ltibia 39.7129
lfoot -27.0329 -14.9868
ltoes -27.3365
52
root 2.57112 15.7438 -37.0101 20.4231 4.90069 -6.4395
lowerback 16.4732 -0.995903 2.00611
upperback 9.31674 -0.983445 1.69099
thorax 0.679685 -0.455713 0.794124
lowerneck -14.7614 -6.54439 -15.49
upperneck 15.5684 -5.74119 2.18407
head 7.80606 -3.43405 2.54848
rclavicle 7.95139e-016 -9.14409e-015
rhumerus -16.7952 19.5583 -69.7687
rradius 44.2016
rwrist 23.4039
rhand -31.8714 -18.366
rfingers 7.12502
rthumb -5.12453 -48.284
lclavicle 7.95139e-016 -9.14409e-015
lhumerus 2.51349 -23.3446 70.9086
lradius 26.6089
lwrist -17.427
lhand -48.0007 11.7233
lfingers 7.12502
lthumb -20.669 40.6427
rfemur -26.7237 -16.6945 23.5804
rtibia 44.5936
rfoot -34.0992 -9.55532
rtoes -15.8721
lfemur -15.5273 3.08381 0.66083
ltibia 43.8111
lfoot -25.0994 -13.6164
ltoes -24.0358
53
root 2.51481 15.7825 -36.9313 21.3852 5.31652 -6.23008
lowerback 16.644 -0.858176 2.37661
upperback 9.63826 -0.756675 1.46565
thorax 0.929607 -0.318414 0.314809
lowerneck -14.4777 -6.96283 -15.7208
upperneck 14.6516 -6.30451 2.11841
head 7.50847 -3.68605 2.50093
rclavicle -3.18055e-015 -2.3059e-014
rhumerus -13.1497 18.151 -68.2787
rradius 42.3745
rwrist 25.457
rhand -32.7113 -18.7475
rfingers 7.12502
rthumb -5.93552 -48.6444
lclavicle -3.18055e-015 -2.3059e-014
lhumerus 4.73397 -24.5576 68.4212
lradius 26.8814
lwrist -16.2908
lhand -47.8858 11.9207
lfingers 7.12502
lthumb -20.5587 40.8521
rfemur -26.8836 -16.8421 24.0127
rtibia 43.3929
rfoot -34.3278 -9.99226
rtoes -14.8759
lfemur -18.7502 4.53033 0.204673
ltibia 47.958
lfoot -22.9804 -12.8113
ltoes -21.1294
54
root 2.44996 15.8206 -36.8504 22.2845 5.6851 -5.87921
lowerback 16.8825 -0.697812 2.34473
upperback 9.98194 -0.551157 1.29853
thorax 1.17637 -0.207791 0.127111
lowerneck -14.1871 -7.32102 -15.9679
upperneck 13.6837 -6.78856 2.05571
head 7.18882 -3.89927 2.47064
rclavicle -2.38542e-015 -3.18055e-014
rhumerus -9.97651 18.4179 -66.5499
rradius 42.115
rwrist 24.6133
rhand -33.0339 -19.5341
rfingers 7.12502
rthumb -6.24693 -49.422
lclavicle -2.38542e-015 -3.18055e-014
lhumerus 6.89658 -25.155 66.277
lradius 27.0402
lwrist -15.4688
lhand -47.8065 12.1467
lfingers 7.12502
lthumb -20.4825 41.0863
rfemur -27.0866 -17.0262 24.253
rtibia 42.394
rfoot -34.1915 -10.3649
rtoes -14.802
lfemur -21.9581 5.76452 -0.526098
ltibia 52.0129
lfoot -21.3299 -11.6222
ltoes -17.0333
55
root 2.39418 15.8536 -36.7682 23.0132 5.85848 -5.7112
lowerback 17.1982 -0.484237 2.51927
upperback 10.4061 -0.250156 1.07265
thorax 1.47512 -0.0378739 -0.253113
lowerneck -13.8585 -7.65152 -16.2402
upperneck 12.6671 -7.28951 2.28508
head 6.86135 -4.09689 2.54334
rclavicle 9.93923e-015 -7.95139e-016
rhumerus -6.21727 17.4494 -64.9811
rradius 40.5146
rwrist 26.2506
rhand -33.7562 -19.9194
rfingers 7.12502
rthumb -6.94427 -49.7855
lclavicle 9.93923e-015 -7.95139e-016
lhumerus 9.3518 -25.5407 63.8986
lradius 26.9827
lwrist -15.4691
lhand -47.2569 12.6432
lfingers 7.12502
lthumb -19.9542 41.6387
rfemur -27.2047 -17.08 24.5531
rtibia 41.5324
rfoot -34.1479 -10.1977
rtoes -14.1007
lfemur -24.9952 7.47146 -1.34099
ltibia 55.8916
lfoot -20.7464 -10.3177
ltoes -12.595
56
root 2.33122 15.882 -36.6892 23.7076 5.90594 -5.33727
lowerback 17.6509 -0.20121 2.19037
upperback 10.8546 0.0762201 0.860142
thorax 1.73363 0.121775 -0.340456
lowerneck -13.6099 -7.99685 -16.48
upperneck 11.6691 -7.79033 2.44727
head 6.55402 -4.2999 2.58857
rclavicle 7.55382e-015 -8.54774e-015
rhumerus -2.55551 17.3415 -63.2684
rradius 39.6137
rwrist 26.7089
rhand -34.0048 -20.8863
rfingers 7.12502
rthumb -7.1842 -50.7444
lclavicle 7.55382e-015 -8.54774e-015
lhumerus 11.9005 -26.219 61.4861
lradius 26.9968
lwrist -14.22
lhand -47.3216 12.81
lfingers 7.12502
lthumb -20.0165 41.799
rfemur -27.3894 -17.1427 24.6238
rtibia 40.8997
rfoot -33.9505 -10.1026
rtoes -13.8036
lfemur -28.0411 9.06496 -2.48782
ltibia 59.5716
lfoot -20.9118 -9.08249
ltoes -13.8791
57
root 2.27497 15.9081 -36.5991 24.374 5.97421 -4.99217
lowerback 18.0471 -0.0248701 2.00377
upperback 11.3746 0.280833 0.619578
thorax 2.10131 0.229741 -0.51943
lowerneck -13.8288 -8.35042 -16.8516
upperneck 11.0845 -8.19872 2.73821
head 6.46434 -4.46695 2.687
rclavicle -1.15295e-014 6.55989e-015
rhumerus 1.35612 16.9795 -61.4245
rradius 38.3848
rwrist 28.7043
rhand -34.2099 -20.6992
rfingers 7.12502
rthumb -7.38221 -50.5504
lclavicle -1.15295e-014 6.55989e-015
lhumerus 14.6077 -27.2307 58.38
lradius 27.1685
lwrist -11.773
lhand -47.431 11.9232
lfingers 7.12502
lthumb -20.1215 40.9012
rfemur -27.6653 -17.7806 24.7877
rtibia 40.4416
rfoot -33.8266 -9.78042
rtoes -13.94
lfemur -31.0965 10.4377 -3.83329
ltibia 62.9753
lfoot -21.7931 -8.4931
ltoes -14.1022
58
root 2.21881 15.9246 -36.5075 25.0851 5.86801 -4.69914
lowerback 18.4151 0.250119 1.69034
upperback 11.8206 0.592849 0.3457
thorax 2.40821 0.383898 -0.680395
lowerneck -13.9386 -8.63376 -17.0815
upperneck 10.6318 -8.55677 3.01951
head 6.39031 -4.61048 2.76948
rclavicle 2.62396e-014 -9.93923e-016
rhumerus 5.28382 16.6651 -59.6949
rradius 37.0115
rwrist 29.4744
rhand -34.2153 -20.3978
rfingers 7.12502
rthumb -7.38736 -50.2488
lclavicle 2.62396e-014 -9.93923e-016
lhumerus 17.1567 -26.639 56.2506
lradius 26.4639
lwrist -13.1412
lhand -47.0085 12.7715
lfingers 7.12502
lthumb -19.7154 41.7917
rfemur -28.0172 -18.1787 24.9174
rtibia 40.1448
rfoot -33.8461 -9.35621
rtoes -13.9737
lfemur -34.3428 12.1203 -5.32256
ltibia 66.1073
lfoot -22.5637 -9.12877
ltoes -11.9981
59
root 2.16037 15.9253 -36.4125 25.8081 5.93874 -4.47648
lowerback 18.795 0.458872 1.41468
upperback 12.2785 0.825984 0.130614
thorax 2.72385 0.498595 -0.789343
lowerneck -14.1071 -8.87965 -17.1819
upperneck 10.0304 -8.86977 3.22179
head 6.26452 -4.7282 2.81277
rclavicle 2.62396e-014 -9.93923e-016
rhumerus 5.28382 16.6651 -59.6949
rradius 37.0115
rwrist 29.4744
rhand -34.2153 -20.3978
rfingers 7.12502
rthumb -7.38736 -50.2488
lclavicle -6.36111e-015 9.93923e-016
lhumerus 19.8779 -27.1048 53.1139
lradius 26.4388
lwrist -11.3638
lhand -46.7244 12.8425
lfingers 7.12502
lthumb -19.4423 41.8905
rfemur -28.4247 -18.5506 25.1774
rtibia 39.9559
rfoot -33.6914 -9.27282
rtoes -14.7861
lfemur -37.6685 13.5401 -6.80931
ltibia 68.9252
lfoot -23.1461 -10.134
ltoes -12.7589
60
root 2.10488 15.9276 -36.3032 26.6006 5.94009 -4.32287
lowerback 19.0039 0.679824 1.33085
upperback 12.6829 1.09827 -0.178877
thorax 3.0783 0.647647 -1.11161
lowerneck -14.2123 -9.14651 -17.5318
upperneck 9.67292 -9.2118 3.74825
head 6.23961 -4.85556 2.99216
rclavicle 2.62396e-014 -9.93923e-016
rhumerus 5.28382 16.6651 -59.6949
rradius 37.0115
rwrist 29.4744
rhand -34.2153 -20.3978
rfingers 7.12502
rthumb -7.38736 -50.2488
lclavicle 4.37326e-015 -2.28602e-014
lhumerus 22.5642 -27.0997 50.231
lradius 26.19
lwrist -11.0892
lhand -45.9851 12.3237
lfingers 7.12502
lthumb -18.7313 41.4418
rfemur -28.9103 -18.651 25.4536
rtibia 39.895
rfoot -33.7987 -9.34023
rtoes -15.064
lfemur -41.0766 14.7029 -8.46334
ltibia 71.3473
lfoot -24.4905 -11.7276
ltoes -13.894
61
root 2.05016 15.9236 -36.1885 27.217 6.21986 -3.89183
lowerback 19.6894 0.821107 0.983717
upperback 12.9615 1.23954 -0.483869
thorax 3.04695 0.714166 -1.27131
lowerneck -14.1672 -9.28132 -17.1519
upperneck 9.24793 -9.46067 3.59103
head 6.0923 -4.95988 2.86354
rclavicle 2.62396e-014 -9.93923e-016
rhumerus 5.28382 16.6651 -59.6949
rradius 37.0115
rwrist 29.4744
rhand -34.2153 -20.3978
rfingers 7.12502
rthumb -7.38736 -50.2488
lclavicle -3.57812e-015 0
lhumerus 24.9525 -27.2824 47.4336
lradius 26.0107
lwrist -9.96643
lhand -45.7961 12.0286
lfingers 7.12502
lthumb -18.5495 41.1642
rfemur -29.1251 -18.8577 25.4332
rtibia 39.9293
rfoot -34.1577 -9.44448
rtoes -14.7602
lfemur -44.4207 15.111 -10.4269
ltibia 73.3629
lfoot -25.5072 -12.6678
ltoes -14.7836
62
root 1.99651 15.9052 -36.0709 28.1152 6.0035 -3.85354
lowerback 19.9846 1.2203 0.519916
upperback 13.1558 1.67875 -0.696658
thorax 3.12288 0.91392 -1.31251
lowerneck -14.1737 -9.42897 -17.2679
upperneck 8.98975 -9.64519 3.67516
head 6.03741 -5.0385 2.8877
rclavicle 6.16232e-015 -1.60022e-014
rhumerus 19.9679 15.8503 -52.8148
rradius 32.8218
rwrist 31.4927
rhand -33.2328 -17.6953
rfingers 7.12502
rthumb -6.43899 -47.5774
lclavicle 6.16232e-015 -1.60022e-014
lhumerus 27.1238 -26.665 45.5151
lradius 25.5211
lwrist -10.0626
lhand -45.0886 11.6027
lfingers 7.12502
lthumb -17.8689 40.8018
rfemur -29.8311 -18.733 25.7802
rtibia 40.1051
rfoot -34.4916 -9.572
rtoes -14.7254
lfemur -48.0744 16.2904 -12.4356
ltibia 75.0707
lfoot -26.2468 -13.8486
ltoes -13.5242
63
root 1.93006 15.8835 -35.9381 28.778 6.29558 -3.44939
lowerback 22.2355 1.81155 -0.997081
upperback 12.1871 2.16171 -0.0697278
thorax 0.868339 1.03721 0.0417471
lowerneck -13.1042 -9.46907 -18.1628
upperneck 9.41823 -9.66423 3.30286
head 6.03591 -5.12406 2.92493
rclavicle 6.16232e-015 -1.60022e-014
rhumerus 19.9679 15.8503 -52.8148
rradius 32.8218
rwrist 31.4927
rhand -33.2328 -17.6953
rfingers 7.12502
rthumb -6.43899 -47.5774
lclavicle 5.46658e-015 -4.52235e-015
lhumerus 27.7309 -27.4891 45.1752
lradius 25.1459
lwrist -9.57541
lhand -44.7064 11.7443
lfingers 7.12502
lthumb -17.5012 40.9766
rfemur -30.1242 -18.8608 25.9392
rtibia 40.3442
rfoot -34.5865 -10.5917
rtoes -15.9596
lfemur -51.457 16.8339 -14.6082
ltibia 76.3737
lfoot -27.235 -14.8299
ltoes -13.5701
64
root 1.86078 15.8554 -35.8142 29.5338 6.73342 -2.92465
lowerback 22.6573 1.97688 -1.65636
upperback 12.4503 2.25039 -0.218096
thorax 0.939415 1.05637 0.230058
lowerneck -13.187 -9.55703 -18.133
upperneck 9.24664 -9.76522 3.26017
head 5.99985 -5.16705 2.89387
rclavicle 2.67365e-014 -1.5207e-014
rhumerus 25.3377 15.9098 -49.3469
rradius 30.8715
rwrist 33.2661
rhand -32.2427 -16.9316
rfingers 7.12502
rthumb -5.48305 -46.8407
lclavicle 2.67365e-014 -1.5207e-014
lhumerus 30.0542 -27.3947 42.8282
lradius 25.0378
lwrist -8.73395
lhand -44.1472 12.513
lfingers 7.12502
lthumb -16.9629 41.7923
rfemur -30.6326 -19.5118 26.1443
rtibia 40.7133
rfoot -35.1636 -10.6814
rtoes -15.6729
lfemur -54.957 16.8902 -16.9032
ltibia 77.3002
lfoot -28.0232 -15.7564
ltoes -13.0739
